<svg xmlns="http://www.w3.org/2000/svg" width="36.031" height="39.652" viewBox="0 0 36.031 39.652">
  <path id="Telefono" d="M1398.563,1215.779h0a1.135,1.135,0,0,0,.14-1.6l-6.176-7.354a1.135,1.135,0,0,0-1.6-.139l-1.354,1.137a3.394,3.394,0,0,1-4.782-.416l-7.963-9.481a3.394,3.394,0,0,1,.416-4.782l1.354-1.137a1.134,1.134,0,0,0,.139-1.6l-6.176-7.354a1.135,1.135,0,0,0-1.6-.139h0a10.737,10.737,0,0,0-1.317,15.128l13.789,16.418A10.738,10.738,0,0,0,1398.563,1215.779Z" transform="translate(-1365.123 -1180.649)" fill="none" stroke="#fff" stroke-linecap="round" stroke-linejoin="round" stroke-width="4"/>
</svg>
