<svg xmlns="http://www.w3.org/2000/svg" width="67.01" height="67.009" viewBox="0 0 67.01 67.009">
  <path id="Twitter" d="M567.745,1165.64a33.5,33.5,0,1,0,33.5,33.5A33.5,33.5,0,0,0,567.745,1165.64Zm15.3,26.124q.022.5.022.987a21.732,21.732,0,0,1-21.578,21.885h-.3a21.764,21.764,0,0,1-11.788-3.454,15.593,15.593,0,0,0,1.833.107,15.437,15.437,0,0,0,9.552-3.292,7.7,7.7,0,0,1-7.185-5.342,7.656,7.656,0,0,0,3.474-.132,7.7,7.7,0,0,1-6.17-7.538v-.1a7.628,7.628,0,0,0,3.483.961,7.7,7.7,0,0,1-2.378-10.272,21.832,21.832,0,0,0,15.852,8.036,7.7,7.7,0,0,1,13.1-7.013,15.42,15.42,0,0,0,4.883-1.867,7.719,7.719,0,0,1-3.383,4.26,15.346,15.346,0,0,0,4.416-1.212A15.632,15.632,0,0,1,583.043,1191.764Z" transform="translate(-534.24 -1165.64)" fill="#969ba9"/>
</svg>
