<svg xmlns="http://www.w3.org/2000/svg" width="67.008" height="67.009" viewBox="0 0 67.008 67.009">
  <g id="Youtube" transform="translate(0.001 0)">
    <path id="Trazado_408" data-name="Trazado 408" d="M728.466,1215.866l11.613-6.688-11.613-6.688Z" transform="translate(-699.409 -1175.419)" fill="#969ba9"/>
    <path id="Trazado_409" data-name="Trazado 409" d="M722.428,1165.652a33.5,33.5,0,1,0,33.5,33.5A33.5,33.5,0,0,0,722.428,1165.652Zm22.307,33.8s0,7.239-.919,10.73a5.589,5.589,0,0,1-3.933,3.932c-3.491.92-17.456.92-17.456.92s-13.928,0-17.456-.956a5.588,5.588,0,0,1-3.932-3.932c-.919-3.455-.919-10.73-.919-10.73s0-7.24.919-10.731a5.7,5.7,0,0,1,3.932-3.969c3.491-.919,17.456-.919,17.456-.919s13.965,0,17.456.955a5.587,5.587,0,0,1,3.932,3.932C744.773,1192.171,744.736,1199.447,744.736,1199.447Z" transform="translate(-688.925 -1165.652)" fill="#969ba9"/>
  </g>
</svg>
